<?xml version="1.0" encoding="UTF-8"?>
<svg xmlns="http://www.w3.org/2000/svg" xmlns:xlink="http://www.w3.org/1999/xlink" width="px" height="20px" viewBox="0 0 33 20" version="1.1">
<g id="surface1">
<path style=" stroke:none;fill-rule:nonzero;fill:rgb(100%,60%,0%);fill-opacity:1;" d="M 32.785156 10.054688 C 32.785156 15.492188 28.421875 19.902344 23.039062 19.902344 C 17.65625 19.90625 13.292969 15.496094 13.289062 10.0625 C 13.289062 10.058594 13.289062 10.058594 13.289062 10.054688 C 13.289062 4.617188 17.652344 0.210938 23.035156 0.207031 C 28.417969 0.207031 32.78125 4.613281 32.785156 10.050781 C 32.785156 10.050781 32.785156 10.054688 32.785156 10.054688 Z M 32.785156 10.054688 "/>
<path style=" stroke:none;fill-rule:nonzero;fill:rgb(80%,0%,0%);fill-opacity:1;" d="M 9.898438 0.210938 C 4.550781 0.246094 0.214844 4.640625 0.214844 10.054688 C 0.214844 15.488281 4.582031 19.902344 9.964844 19.902344 C 12.488281 19.902344 14.789062 18.929688 16.523438 17.335938 C 16.519531 17.335938 16.519531 17.335938 16.519531 17.335938 L 16.523438 17.335938 C 16.878906 17.007812 17.207031 16.65625 17.511719 16.28125 L 15.515625 16.28125 C 15.25 15.957031 15.007812 15.617188 14.789062 15.265625 L 18.234375 15.265625 C 18.441406 14.929688 18.632812 14.578125 18.800781 14.210938 L 14.21875 14.210938 C 14.0625 13.875 13.929688 13.527344 13.8125 13.179688 L 19.207031 13.179688 C 19.53125 12.195312 19.710938 11.148438 19.710938 10.054688 C 19.710938 9.332031 19.632812 8.625 19.484375 7.945312 L 13.527344 7.945312 C 13.601562 7.597656 13.695312 7.253906 13.804688 6.914062 L 19.203125 6.914062 C 19.082031 6.550781 18.941406 6.199219 18.78125 5.859375 L 14.21875 5.859375 C 14.382812 5.503906 14.570312 5.160156 14.777344 4.824219 L 18.21875 4.824219 C 17.992188 4.457031 17.738281 4.105469 17.464844 3.769531 L 15.546875 3.769531 C 15.839844 3.417969 16.167969 3.085938 16.523438 2.777344 C 14.789062 1.183594 12.488281 0.210938 9.964844 0.210938 C 9.941406 0.210938 9.921875 0.210938 9.898438 0.210938 Z M 9.898438 0.210938 "/>
<path style=" stroke:none;fill-rule:nonzero;fill:rgb(98.823529%,70.196078%,25.098039%);fill-opacity:1;" d="M 31.804688 15.203125 C 31.859375 15.203125 31.910156 15.214844 31.960938 15.242188 C 32.011719 15.269531 32.050781 15.308594 32.078125 15.363281 C 32.105469 15.414062 32.121094 15.464844 32.121094 15.519531 C 32.121094 15.574219 32.105469 15.628906 32.078125 15.679688 C 32.050781 15.730469 32.011719 15.769531 31.960938 15.796875 C 31.914062 15.824219 31.859375 15.839844 31.804688 15.839844 C 31.75 15.839844 31.699219 15.824219 31.648438 15.796875 C 31.597656 15.769531 31.558594 15.730469 31.53125 15.679688 C 31.503906 15.628906 31.492188 15.574219 31.492188 15.519531 C 31.492188 15.464844 31.503906 15.414062 31.53125 15.363281 C 31.5625 15.308594 31.601562 15.269531 31.652344 15.242188 C 31.703125 15.214844 31.753906 15.203125 31.804688 15.203125 M 31.804688 15.253906 C 31.761719 15.253906 31.71875 15.265625 31.675781 15.289062 C 31.632812 15.3125 31.601562 15.34375 31.578125 15.386719 C 31.554688 15.429688 31.542969 15.476562 31.542969 15.519531 C 31.542969 15.566406 31.554688 15.609375 31.578125 15.652344 C 31.601562 15.695312 31.632812 15.726562 31.675781 15.75 C 31.71875 15.773438 31.761719 15.785156 31.804688 15.785156 C 31.851562 15.785156 31.894531 15.773438 31.9375 15.75 C 31.976562 15.726562 32.011719 15.695312 32.035156 15.652344 C 32.054688 15.609375 32.066406 15.566406 32.066406 15.519531 C 32.066406 15.476562 32.054688 15.429688 32.03125 15.386719 C 32.007812 15.34375 31.976562 15.3125 31.933594 15.289062 C 31.894531 15.265625 31.851562 15.253906 31.804688 15.253906 M 31.667969 15.695312 L 31.667969 15.355469 L 31.785156 15.355469 C 31.824219 15.355469 31.851562 15.355469 31.871094 15.363281 C 31.886719 15.371094 31.902344 15.382812 31.914062 15.398438 C 31.921875 15.414062 31.929688 15.429688 31.929688 15.445312 C 31.929688 15.472656 31.921875 15.492188 31.902344 15.511719 C 31.886719 15.53125 31.863281 15.542969 31.832031 15.542969 C 31.84375 15.546875 31.855469 15.554688 31.859375 15.5625 C 31.875 15.574219 31.890625 15.597656 31.910156 15.628906 L 31.953125 15.695312 L 31.886719 15.695312 L 31.855469 15.644531 C 31.832031 15.601562 31.8125 15.574219 31.796875 15.5625 C 31.789062 15.554688 31.773438 15.550781 31.753906 15.550781 L 31.722656 15.550781 L 31.722656 15.695312 L 31.667969 15.695312 M 31.722656 15.503906 L 31.789062 15.503906 C 31.820312 15.503906 31.84375 15.5 31.851562 15.488281 C 31.863281 15.480469 31.871094 15.46875 31.871094 15.453125 C 31.871094 15.441406 31.867188 15.433594 31.863281 15.425781 C 31.855469 15.417969 31.847656 15.410156 31.839844 15.40625 C 31.828125 15.402344 31.8125 15.398438 31.785156 15.398438 L 31.722656 15.398438 L 31.722656 15.503906 "/>
<path style=" stroke:none;fill-rule:nonzero;fill:rgb(0%,0%,40%);fill-opacity:1;" d="M 13.195312 12.878906 L 13.328125 11.988281 C 13.257812 11.988281 13.152344 12.019531 13.058594 12.019531 C 12.699219 12.019531 12.652344 11.824219 12.683594 11.683594 L 13.039062 9.890625 L 13.585938 9.890625 L 13.699219 8.878906 L 13.183594 8.878906 L 13.289062 8.265625 L 12.207031 8.265625 C 12.183594 8.289062 11.59375 11.710938 11.59375 12.128906 C 11.59375 12.746094 11.9375 13.023438 12.417969 13.015625 C 12.796875 13.015625 13.09375 12.910156 13.195312 12.878906 Z M 13.195312 12.878906 "/>
<path style=" stroke:none;fill-rule:nonzero;fill:rgb(0%,0%,40%);fill-opacity:1;" d="M 13.527344 11.179688 C 13.527344 12.664062 14.492188 13.015625 15.320312 13.015625 C 16.078125 13.015625 16.480469 12.835938 16.480469 12.835938 L 16.660156 11.824219 C 16.660156 11.824219 16.019531 12.089844 15.496094 12.089844 C 14.382812 12.089844 14.578125 11.25 14.578125 11.25 L 16.71875 11.257812 C 16.71875 11.257812 16.855469 10.578125 16.855469 10.300781 C 16.855469 9.609375 16.480469 8.761719 15.34375 8.761719 C 14.296875 8.761719 13.527344 9.898438 13.527344 11.179688 Z M 15.347656 9.699219 C 15.929688 9.699219 15.824219 10.367188 15.824219 10.417969 L 14.671875 10.417969 C 14.671875 10.351562 14.78125 9.699219 15.347656 9.699219 Z M 15.347656 9.699219 "/>
<path style=" stroke:none;fill-rule:nonzero;fill:rgb(0%,0%,40%);fill-opacity:1;" d="M 21.917969 12.878906 L 22.101562 11.738281 C 22.101562 11.738281 21.59375 11.996094 21.242188 11.996094 C 20.507812 11.996094 20.210938 11.425781 20.210938 10.816406 C 20.210938 9.578125 20.847656 8.898438 21.550781 8.898438 C 22.078125 8.898438 22.503906 9.199219 22.503906 9.199219 L 22.671875 8.089844 C 22.671875 8.089844 22.171875 7.722656 21.632812 7.71875 C 20.011719 7.714844 19.082031 8.855469 19.082031 10.828125 C 19.082031 12.132812 19.769531 13.023438 21.007812 13.023438 C 21.359375 13.023438 21.917969 12.878906 21.917969 12.878906 Z M 21.917969 12.878906 "/>
<path style=" stroke:none;fill-rule:nonzero;fill:rgb(0%,0%,40%);fill-opacity:1;" d="M 7.488281 8.777344 C 6.777344 8.777344 6.234375 9.007812 6.234375 9.007812 L 6.082031 9.914062 C 6.082031 9.914062 6.53125 9.726562 7.210938 9.726562 C 7.597656 9.726562 7.882812 9.773438 7.882812 10.089844 C 7.882812 10.28125 7.847656 10.351562 7.847656 10.351562 C 7.847656 10.351562 7.542969 10.328125 7.402344 10.328125 C 6.386719 10.328125 5.5625 10.714844 5.5625 11.878906 C 5.5625 12.800781 6.179688 13.011719 6.5625 13.011719 C 7.296875 13.011719 7.585938 12.542969 7.601562 12.542969 L 7.59375 12.929688 C 7.59375 12.929688 8.507812 12.929688 8.507812 12.929688 L 8.914062 10.042969 C 8.914062 8.816406 7.855469 8.777344 7.488281 8.777344 Z M 7.648438 11.121094 C 7.667969 11.296875 7.601562 12.132812 6.976562 12.132812 C 6.65625 12.132812 6.570312 11.882812 6.570312 11.734375 C 6.570312 11.449219 6.726562 11.105469 7.484375 11.105469 C 7.664062 11.105469 7.617188 11.117188 7.648438 11.121094 Z M 7.648438 11.121094 "/>
<path style=" stroke:none;fill-rule:nonzero;fill:rgb(0%,0%,40%);fill-opacity:1;" d="M 9.886719 12.988281 C 10.121094 12.988281 11.457031 13.050781 11.457031 11.65625 C 11.457031 10.355469 10.21875 10.609375 10.21875 10.089844 C 10.21875 9.828125 10.421875 9.746094 10.789062 9.746094 C 10.933594 9.746094 11.5 9.792969 11.5 9.792969 L 11.628906 8.867188 C 11.628906 8.867188 11.265625 8.785156 10.671875 8.785156 C 9.902344 8.785156 9.125 9.09375 9.125 10.152344 C 9.125 11.355469 10.425781 11.234375 10.425781 11.738281 C 10.425781 12.078125 10.0625 12.105469 9.78125 12.105469 C 9.296875 12.105469 8.859375 11.9375 8.859375 11.945312 L 8.722656 12.859375 C 8.746094 12.867188 9.015625 12.988281 9.886719 12.988281 Z M 9.886719 12.988281 "/>
<path style=" stroke:none;fill-rule:nonzero;fill:rgb(0%,0%,40%);fill-opacity:1;" d="M 30.476562 7.9375 L 30.289062 9.351562 C 30.289062 9.351562 29.898438 8.804688 29.285156 8.804688 C 28.136719 8.804688 27.542969 9.964844 27.542969 11.292969 C 27.542969 12.152344 27.964844 12.996094 28.832031 12.996094 C 29.453125 12.996094 29.796875 12.558594 29.796875 12.558594 L 29.75 12.929688 L 30.761719 12.929688 L 31.554688 7.945312 Z M 30.03125 10.683594 C 30.03125 11.238281 29.757812 11.976562 29.199219 11.976562 C 28.824219 11.976562 28.648438 11.660156 28.648438 11.164062 C 28.648438 10.351562 29.011719 9.8125 29.464844 9.8125 C 29.839844 9.8125 30.03125 10.074219 30.03125 10.683594 Z M 30.03125 10.683594 "/>
<path style=" stroke:none;fill-rule:nonzero;fill:rgb(0%,0%,40%);fill-opacity:1;" d="M 1.871094 12.933594 L 2.503906 9.171875 L 2.59375 12.933594 L 3.308594 12.933594 L 4.644531 9.171875 L 4.054688 12.933594 L 5.117188 12.933594 L 5.933594 7.945312 L 4.246094 7.929688 L 3.242188 10.988281 L 3.214844 7.945312 L 1.667969 7.945312 L 0.839844 12.933594 Z M 1.871094 12.933594 "/>
<path style=" stroke:none;fill-rule:nonzero;fill:rgb(0%,0%,40%);fill-opacity:1;" d="M 17.859375 12.941406 C 18.160156 11.207031 18.269531 9.835938 19.148438 10.121094 C 19.277344 9.449219 19.578125 8.867188 19.714844 8.582031 C 19.714844 8.582031 19.671875 8.515625 19.398438 8.515625 C 18.933594 8.515625 18.3125 9.46875 18.3125 9.46875 L 18.40625 8.878906 L 17.441406 8.878906 L 16.792969 12.941406 Z M 17.859375 12.941406 "/>
<path style=" stroke:none;fill-rule:nonzero;fill:rgb(0%,0%,40%);fill-opacity:1;" d="M 24.089844 8.777344 C 23.378906 8.777344 22.832031 9.007812 22.832031 9.007812 L 22.683594 9.914062 C 22.683594 9.914062 23.132812 9.726562 23.8125 9.726562 C 24.199219 9.726562 24.484375 9.773438 24.484375 10.089844 C 24.484375 10.28125 24.449219 10.351562 24.449219 10.351562 C 24.449219 10.351562 24.144531 10.328125 24.003906 10.328125 C 22.988281 10.328125 22.160156 10.714844 22.160156 11.878906 C 22.160156 12.800781 22.78125 13.011719 23.164062 13.011719 C 23.894531 13.011719 24.1875 12.542969 24.203125 12.542969 L 24.195312 12.929688 L 25.109375 12.929688 L 25.515625 10.042969 C 25.515625 8.816406 24.457031 8.777344 24.089844 8.777344 Z M 24.25 11.121094 C 24.269531 11.296875 24.203125 12.132812 23.578125 12.132812 C 23.257812 12.132812 23.171875 11.882812 23.171875 11.734375 C 23.171875 11.449219 23.328125 11.105469 24.085938 11.105469 C 24.265625 11.105469 24.21875 11.117188 24.25 11.121094 Z M 24.25 11.121094 "/>
<path style=" stroke:none;fill-rule:nonzero;fill:rgb(0%,0%,40%);fill-opacity:1;" d="M 26.566406 12.941406 C 26.734375 11.664062 27.039062 9.875 27.859375 10.121094 C 27.984375 9.449219 27.863281 9.449219 27.589844 9.449219 C 27.125 9.449219 27.023438 9.46875 27.023438 9.46875 L 27.113281 8.878906 L 26.148438 8.878906 L 25.5 12.941406 Z M 26.566406 12.941406 "/>
<path style=" stroke:none;fill-rule:nonzero;fill:rgb(100%,100%,100%);fill-opacity:1;" d="M 13.46875 12.5625 L 13.597656 11.671875 C 13.527344 11.671875 13.421875 11.703125 13.332031 11.703125 C 12.96875 11.703125 12.929688 11.507812 12.953125 11.363281 L 13.242188 9.546875 L 13.792969 9.546875 L 13.925781 8.5625 L 13.40625 8.5625 L 13.511719 7.949219 L 12.476562 7.949219 C 12.453125 7.972656 11.863281 11.394531 11.863281 11.8125 C 11.863281 12.429688 12.207031 12.703125 12.691406 12.699219 C 13.070312 12.695312 13.363281 12.589844 13.46875 12.5625 Z M 13.46875 12.5625 "/>
<path style=" stroke:none;fill-rule:nonzero;fill:rgb(100%,100%,100%);fill-opacity:1;" d="M 13.796875 10.863281 C 13.796875 12.34375 14.765625 12.695312 15.589844 12.695312 C 16.351562 12.695312 16.683594 12.523438 16.683594 12.523438 L 16.867188 11.515625 C 16.867188 11.515625 16.289062 11.769531 15.765625 11.769531 C 14.652344 11.769531 14.847656 10.933594 14.847656 10.933594 L 16.957031 10.933594 C 16.957031 10.933594 17.09375 10.253906 17.09375 9.976562 C 17.09375 9.285156 16.75 8.445312 15.613281 8.445312 C 14.570312 8.445312 13.796875 9.578125 13.796875 10.863281 Z M 15.617188 9.382812 C 16.203125 9.382812 16.09375 10.046875 16.09375 10.101562 L 14.941406 10.101562 C 14.941406 10.03125 15.050781 9.382812 15.617188 9.382812 Z M 15.617188 9.382812 "/>
<path style=" stroke:none;fill-rule:nonzero;fill:rgb(100%,100%,100%);fill-opacity:1;" d="M 22.1875 12.5625 L 22.375 11.417969 C 22.375 11.417969 21.863281 11.675781 21.515625 11.675781 C 20.777344 11.675781 20.484375 11.109375 20.484375 10.5 C 20.484375 9.261719 21.117188 8.582031 21.820312 8.582031 C 22.351562 8.582031 22.773438 8.878906 22.773438 8.878906 L 22.945312 7.769531 C 22.945312 7.769531 22.316406 7.511719 21.777344 7.511719 C 20.578125 7.511719 19.414062 8.5625 19.414062 10.535156 C 19.414062 11.839844 20.042969 12.707031 21.28125 12.707031 C 21.628906 12.707031 22.1875 12.5625 22.1875 12.5625 Z M 22.1875 12.5625 "/>
<path style=" stroke:none;fill-rule:nonzero;fill:rgb(100%,100%,100%);fill-opacity:1;" d="M 7.761719 8.460938 C 7.046875 8.460938 6.503906 8.691406 6.503906 8.691406 L 6.351562 9.59375 C 6.351562 9.59375 6.800781 9.410156 7.484375 9.410156 C 7.871094 9.410156 8.152344 9.453125 8.152344 9.769531 C 8.152344 9.964844 8.117188 10.035156 8.117188 10.035156 C 8.117188 10.035156 7.8125 10.007812 7.671875 10.007812 C 6.773438 10.007812 5.832031 10.394531 5.832031 11.5625 C 5.832031 12.480469 6.449219 12.691406 6.832031 12.691406 C 7.566406 12.691406 7.882812 12.210938 7.898438 12.210938 L 7.863281 12.609375 L 8.777344 12.609375 L 9.183594 9.722656 C 9.183594 8.5 8.128906 8.460938 7.761719 8.460938 Z M 7.984375 10.8125 C 8.003906 10.988281 7.871094 11.8125 7.25 11.8125 C 6.925781 11.8125 6.84375 11.566406 6.84375 11.417969 C 6.84375 11.132812 6.996094 10.785156 7.757812 10.785156 C 7.933594 10.785156 7.953125 10.804688 7.984375 10.8125 Z M 7.984375 10.8125 "/>
<path style=" stroke:none;fill-rule:nonzero;fill:rgb(100%,100%,100%);fill-opacity:1;" d="M 10.15625 12.671875 C 10.390625 12.671875 11.726562 12.730469 11.726562 11.339844 C 11.726562 10.035156 10.488281 10.292969 10.488281 9.769531 C 10.488281 9.507812 10.691406 9.425781 11.058594 9.425781 C 11.207031 9.425781 11.769531 9.476562 11.769531 9.476562 L 11.898438 8.550781 C 11.898438 8.550781 11.535156 8.464844 10.941406 8.464844 C 10.175781 8.464844 9.394531 8.777344 9.394531 9.835938 C 9.394531 11.035156 10.695312 10.914062 10.695312 11.421875 C 10.695312 11.757812 10.332031 11.785156 10.050781 11.785156 C 9.566406 11.785156 9.132812 11.617188 9.128906 11.625 L 8.992188 12.542969 C 9.015625 12.550781 9.285156 12.671875 10.15625 12.671875 Z M 10.15625 12.671875 "/>
<path style=" stroke:none;fill-rule:nonzero;fill:rgb(100%,100%,100%);fill-opacity:1;" d="M 30.785156 7.628906 L 30.558594 9.03125 C 30.558594 9.03125 30.167969 8.488281 29.558594 8.488281 C 28.605469 8.488281 27.8125 9.644531 27.8125 10.976562 C 27.8125 11.835938 28.238281 12.675781 29.101562 12.675781 C 29.722656 12.675781 30.066406 12.238281 30.066406 12.238281 L 30.023438 12.613281 L 31.03125 12.613281 L 31.824219 7.628906 Z M 30.300781 10.367188 C 30.300781 10.917969 30.03125 11.660156 29.46875 11.660156 C 29.09375 11.660156 28.917969 11.34375 28.917969 10.84375 C 28.917969 10.03125 29.28125 9.496094 29.738281 9.496094 C 30.109375 9.496094 30.300781 9.753906 30.300781 10.367188 Z M 30.300781 10.367188 "/>
<path style=" stroke:none;fill-rule:nonzero;fill:rgb(100%,100%,100%);fill-opacity:1;" d="M 2.140625 12.617188 L 2.773438 8.855469 L 2.867188 12.617188 L 3.582031 12.617188 L 4.914062 8.855469 L 4.324219 12.617188 L 5.386719 12.617188 L 6.203125 7.625 L 4.5625 7.625 L 3.539062 10.6875 L 3.484375 7.625 L 1.96875 7.625 L 1.140625 12.617188 Z M 2.140625 12.617188 "/>
<path style=" stroke:none;fill-rule:nonzero;fill:rgb(100%,100%,100%);fill-opacity:1;" d="M 18.128906 12.625 C 18.433594 10.890625 18.488281 9.480469 19.207031 9.738281 C 19.335938 9.066406 19.457031 8.808594 19.59375 8.523438 C 19.59375 8.523438 19.53125 8.507812 19.394531 8.507812 C 18.929688 8.507812 18.585938 9.148438 18.585938 9.148438 L 18.679688 8.5625 L 17.710938 8.5625 L 17.0625 12.625 Z M 18.128906 12.625 "/>
<path style=" stroke:none;fill-rule:nonzero;fill:rgb(100%,100%,100%);fill-opacity:1;" d="M 24.582031 8.460938 C 23.871094 8.460938 23.324219 8.691406 23.324219 8.691406 L 23.175781 9.59375 C 23.175781 9.59375 23.625 9.410156 24.304688 9.410156 C 24.691406 9.410156 24.972656 9.453125 24.972656 9.769531 C 24.972656 9.964844 24.941406 10.035156 24.941406 10.035156 C 24.941406 10.035156 24.636719 10.007812 24.492188 10.007812 C 23.597656 10.007812 22.652344 10.394531 22.652344 11.5625 C 22.652344 12.480469 23.273438 12.691406 23.65625 12.691406 C 24.386719 12.691406 24.703125 12.210938 24.71875 12.210938 L 24.6875 12.609375 C 24.6875 12.609375 25.597656 12.609375 25.601562 12.609375 L 26.007812 9.722656 C 26.007812 8.5 24.949219 8.460938 24.582031 8.460938 Z M 24.804688 10.8125 C 24.824219 10.988281 24.695312 11.8125 24.070312 11.8125 C 23.746094 11.8125 23.664062 11.566406 23.664062 11.417969 C 23.664062 11.132812 23.820312 10.785156 24.578125 10.785156 C 24.757812 10.785156 24.773438 10.804688 24.804688 10.8125 Z M 24.804688 10.8125 "/>
<path style=" stroke:none;fill-rule:nonzero;fill:rgb(100%,100%,100%);fill-opacity:1;" d="M 26.84375 12.625 C 27.144531 10.890625 27.199219 9.480469 27.921875 9.738281 C 28.046875 9.066406 28.167969 8.808594 28.308594 8.523438 C 28.308594 8.523438 28.242188 8.507812 28.105469 8.507812 C 27.640625 8.507812 27.296875 9.148438 27.296875 9.148438 L 27.390625 8.5625 L 26.425781 8.5625 L 25.777344 12.625 Z M 26.84375 12.625 "/>
<path style=" stroke:none;fill-rule:nonzero;fill:rgb(100%,100%,100%);fill-opacity:1;" d="M 31.800781 11.996094 C 31.855469 11.996094 31.90625 12.011719 31.957031 12.039062 C 32.007812 12.066406 32.046875 12.105469 32.074219 12.15625 C 32.101562 12.207031 32.117188 12.261719 32.117188 12.316406 C 32.117188 12.371094 32.101562 12.421875 32.074219 12.472656 C 32.046875 12.523438 32.007812 12.5625 31.957031 12.59375 C 31.90625 12.621094 31.855469 12.632812 31.800781 12.632812 C 31.746094 12.632812 31.695312 12.621094 31.644531 12.59375 C 31.59375 12.5625 31.554688 12.523438 31.527344 12.472656 C 31.5 12.421875 31.484375 12.371094 31.484375 12.316406 C 31.484375 12.261719 31.5 12.207031 31.527344 12.15625 C 31.554688 12.105469 31.597656 12.066406 31.644531 12.039062 C 31.695312 12.011719 31.75 11.996094 31.800781 11.996094 M 31.800781 12.050781 C 31.757812 12.050781 31.714844 12.0625 31.671875 12.085938 C 31.628906 12.105469 31.597656 12.140625 31.574219 12.183594 C 31.550781 12.226562 31.539062 12.269531 31.539062 12.316406 C 31.539062 12.363281 31.550781 12.40625 31.574219 12.449219 C 31.597656 12.488281 31.628906 12.523438 31.671875 12.546875 C 31.710938 12.570312 31.757812 12.582031 31.800781 12.582031 C 31.847656 12.582031 31.890625 12.570312 31.933594 12.546875 C 31.972656 12.523438 32.007812 12.488281 32.03125 12.449219 C 32.050781 12.40625 32.0625 12.363281 32.0625 12.316406 C 32.0625 12.269531 32.050781 12.226562 32.027344 12.183594 C 32.003906 12.140625 31.972656 12.105469 31.929688 12.085938 C 31.886719 12.0625 31.847656 12.050781 31.800781 12.050781 M 31.664062 12.492188 L 31.664062 12.148438 L 31.78125 12.148438 C 31.820312 12.148438 31.847656 12.152344 31.867188 12.160156 C 31.882812 12.164062 31.898438 12.175781 31.910156 12.191406 C 31.917969 12.207031 31.925781 12.222656 31.925781 12.242188 C 31.925781 12.265625 31.917969 12.289062 31.898438 12.308594 C 31.882812 12.324219 31.859375 12.335938 31.828125 12.339844 C 31.839844 12.34375 31.851562 12.347656 31.855469 12.355469 C 31.871094 12.371094 31.886719 12.390625 31.90625 12.425781 L 31.949219 12.492188 L 31.882812 12.492188 L 31.851562 12.4375 C 31.828125 12.394531 31.808594 12.367188 31.792969 12.359375 C 31.785156 12.351562 31.769531 12.347656 31.75 12.347656 L 31.71875 12.347656 L 31.71875 12.492188 L 31.664062 12.492188 M 31.71875 12.296875 L 31.785156 12.296875 C 31.816406 12.296875 31.839844 12.292969 31.847656 12.285156 C 31.859375 12.273438 31.867188 12.261719 31.867188 12.246094 C 31.867188 12.234375 31.863281 12.226562 31.859375 12.21875 C 31.851562 12.210938 31.84375 12.207031 31.835938 12.203125 C 31.824219 12.199219 31.808594 12.195312 31.78125 12.195312 L 31.71875 12.195312 L 31.71875 12.296875 "/>
</g>
</svg>
