<?xml version="1.0" encoding="UTF-8"?>
<svg xmlns="http://www.w3.org/2000/svg" xmlns:xlink="http://www.w3.org/1999/xlink" width="px" height="20px" viewBox="0 0 82 20" version="1.1">
<g id="surface1">
<path style=" stroke:none;fill-rule:evenodd;fill:rgb(0%,61.960784%,89.019608%);fill-opacity:1;" d="M 7.246094 4.707031 L 12.835938 4.707031 C 15.835938 4.707031 16.964844 6.242188 16.789062 8.492188 C 16.5 12.210938 14.273438 14.269531 11.320312 14.269531 L 9.828125 14.269531 C 9.421875 14.269531 9.148438 14.539062 9.039062 15.273438 L 8.40625 19.542969 C 8.363281 19.816406 8.222656 19.976562 8.003906 20 L 4.492188 20 C 4.164062 20 4.046875 19.746094 4.132812 19.191406 L 6.273438 5.515625 C 6.355469 4.96875 6.652344 4.707031 7.246094 4.707031 Z M 7.246094 4.707031 "/>
<path style=" stroke:none;fill-rule:evenodd;fill:rgb(6.666667%,22.352941%,51.764706%);fill-opacity:1;" d="M 31.507812 4.453125 C 33.394531 4.453125 35.132812 5.488281 34.894531 8.058594 C 34.605469 11.117188 32.984375 12.808594 30.421875 12.816406 L 28.183594 12.816406 C 27.863281 12.816406 27.707031 13.082031 27.625 13.625 L 27.191406 16.402344 C 27.125 16.820312 26.914062 17.027344 26.597656 17.027344 L 24.515625 17.027344 C 24.183594 17.027344 24.070312 16.8125 24.144531 16.335938 L 25.863281 5.207031 C 25.945312 4.65625 26.148438 4.453125 26.519531 4.453125 Z M 28.117188 10.414062 L 29.8125 10.414062 C 30.871094 10.371094 31.578125 9.632812 31.648438 8.292969 C 31.691406 7.46875 31.136719 6.878906 30.257812 6.882812 L 28.664062 6.890625 Z M 40.554688 16.175781 C 40.742188 16 40.9375 15.910156 40.910156 16.125 L 40.84375 16.640625 C 40.808594 16.910156 40.914062 17.054688 41.160156 17.054688 L 43.011719 17.054688 C 43.320312 17.054688 43.472656 16.925781 43.550781 16.441406 L 44.6875 9.222656 C 44.746094 8.859375 44.660156 8.679688 44.386719 8.679688 L 42.351562 8.679688 C 42.167969 8.679688 42.078125 8.785156 42.03125 9.066406 L 41.957031 9.511719 C 41.917969 9.742188 41.8125 9.785156 41.714844 9.550781 C 41.371094 8.726562 40.488281 8.355469 39.261719 8.386719 C 36.410156 8.445312 34.488281 10.632812 34.28125 13.433594 C 34.121094 15.597656 35.660156 17.300781 37.6875 17.300781 C 39.160156 17.300781 39.816406 16.863281 40.558594 16.179688 Z M 39.003906 15.066406 C 37.777344 15.066406 36.921875 14.078125 37.097656 12.863281 C 37.277344 11.652344 38.425781 10.664062 39.652344 10.664062 C 40.878906 10.664062 41.734375 11.652344 41.558594 12.863281 C 41.378906 14.078125 40.234375 15.066406 39.003906 15.066406 Z M 48.308594 8.65625 L 46.433594 8.65625 C 46.046875 8.65625 45.890625 8.949219 46.011719 9.308594 L 48.339844 16.1875 L 46.058594 19.464844 C 45.863281 19.738281 46.011719 19.988281 46.285156 19.988281 L 48.390625 19.988281 C 48.640625 20.015625 48.886719 19.894531 49.015625 19.675781 L 56.175781 9.308594 C 56.398438 8.988281 56.292969 8.65625 55.933594 8.65625 L 53.9375 8.65625 C 53.59375 8.65625 53.457031 8.792969 53.261719 9.078125 L 50.277344 13.449219 L 48.941406 9.070312 C 48.863281 8.804688 48.667969 8.65625 48.308594 8.65625 Z M 48.308594 8.65625 "/>
<path style=" stroke:none;fill-rule:evenodd;fill:rgb(0%,61.960784%,89.019608%);fill-opacity:1;" d="M 63.625 4.453125 C 65.511719 4.453125 67.25 5.488281 67.015625 8.058594 C 66.726562 11.117188 65.101562 12.808594 62.542969 12.816406 L 60.304688 12.816406 C 59.984375 12.816406 59.828125 13.082031 59.746094 13.625 L 59.3125 16.402344 C 59.246094 16.820312 59.035156 17.027344 58.71875 17.027344 L 56.636719 17.027344 C 56.304688 17.027344 56.191406 16.8125 56.265625 16.335938 L 57.984375 5.203125 C 58.070312 4.65625 58.273438 4.453125 58.644531 4.453125 Z M 60.238281 10.414062 L 61.933594 10.414062 C 62.992188 10.371094 63.695312 9.632812 63.765625 8.292969 C 63.808594 7.46875 63.257812 6.878906 62.378906 6.882812 L 60.785156 6.890625 Z M 72.671875 16.175781 C 72.863281 16 73.054688 15.910156 73.027344 16.125 L 72.960938 16.640625 C 72.925781 16.910156 73.03125 17.054688 73.28125 17.054688 L 75.128906 17.054688 C 75.441406 17.054688 75.59375 16.925781 75.667969 16.441406 L 76.808594 9.222656 C 76.867188 8.859375 76.777344 8.679688 76.503906 8.679688 L 74.472656 8.679688 C 74.292969 8.679688 74.203125 8.785156 74.152344 9.066406 L 74.078125 9.511719 C 74.039062 9.742188 73.933594 9.785156 73.835938 9.550781 C 73.492188 8.726562 72.613281 8.355469 71.382812 8.386719 C 68.53125 8.445312 66.609375 10.632812 66.402344 13.433594 C 66.246094 15.597656 67.78125 17.300781 69.8125 17.300781 C 71.28125 17.300781 71.941406 16.863281 72.679688 16.179688 Z M 71.125 15.066406 C 69.898438 15.066406 69.042969 14.078125 69.21875 12.863281 C 69.398438 11.652344 70.546875 10.664062 71.773438 10.664062 C 73 10.664062 73.855469 11.652344 73.679688 12.863281 C 73.5 14.078125 72.351562 15.066406 71.125 15.066406 Z M 79.65625 17.066406 L 77.519531 17.066406 C 77.445312 17.070312 77.371094 17.039062 77.320312 16.980469 C 77.269531 16.925781 77.246094 16.851562 77.257812 16.773438 L 79.132812 4.78125 C 79.171875 4.613281 79.316406 4.492188 79.488281 4.492188 L 81.625 4.492188 C 81.699219 4.488281 81.773438 4.519531 81.820312 4.574219 C 81.871094 4.628906 81.894531 4.707031 81.882812 4.78125 L 80.007812 16.773438 C 79.972656 16.945312 79.828125 17.066406 79.65625 17.070312 Z M 79.65625 17.066406 "/>
<path style=" stroke:none;fill-rule:evenodd;fill:rgb(6.666667%,22.352941%,51.764706%);fill-opacity:1;" d="M 3.75 0 L 9.34375 0 C 10.917969 0 12.789062 0.0507812 14.039062 1.164062 C 14.875 1.910156 15.3125 3.09375 15.210938 4.367188 C 14.867188 8.679688 12.3125 11.097656 8.886719 11.097656 L 6.128906 11.097656 C 5.65625 11.097656 5.347656 11.410156 5.214844 12.261719 L 4.445312 17.210938 C 4.394531 17.53125 4.257812 17.722656 4.011719 17.746094 L 0.558594 17.746094 C 0.175781 17.746094 0.0429688 17.453125 0.140625 16.808594 L 2.621094 0.941406 C 2.722656 0.304688 3.070312 0 3.75 0 Z M 3.75 0 "/>
<path style=" stroke:none;fill-rule:evenodd;fill:rgb(9.019608%,17.254902%,43.921569%);fill-opacity:1;" d="M 5.296875 11.757812 L 6.273438 5.515625 C 6.355469 4.96875 6.652344 4.707031 7.246094 4.707031 L 12.835938 4.707031 C 13.757812 4.707031 14.507812 4.851562 15.09375 5.121094 C 14.53125 8.960938 12.074219 11.089844 8.851562 11.089844 L 6.097656 11.089844 C 5.730469 11.09375 5.457031 11.277344 5.296875 11.757812 Z M 5.296875 11.757812 "/>
</g>
</svg>
