<svg 
 xmlns="http://www.w3.org/2000/svg"
 xmlns:xlink="http://www.w3.org/1999/xlink"
 width="12px" height="13px">
<path fill-rule="evenodd"  fill="rgb(41, 40, 45)"
 d="M11.343,5.270 L6.937,5.270 L6.937,0.872 C6.937,0.511 6.644,0.208 6.282,0.208 L5.718,0.208 C5.356,0.208 5.62,0.511 5.62,0.872 L5.62,5.270 L0.656,5.270 C0.294,5.270 0.0,5.563 0.0,5.925 L0.0,6.492 C0.0,6.854 0.294,7.145 0.656,7.145 L5.62,7.145 L5.62,11.559 C5.62,11.921 5.356,12.208 5.718,12.208 L6.282,12.208 C6.644,12.208 6.937,11.921 6.937,11.559 L6.937,7.145 L11.342,7.145 C11.704,7.145 11.999,6.854 11.999,6.492 L11.999,5.925 C11.999,5.563 11.704,5.270 11.342,5.270 "/>
</svg>