<?xml version="1.0" encoding="UTF-8"?>
<svg xmlns="http://www.w3.org/2000/svg" xmlns:xlink="http://www.w3.org/1999/xlink" width="px" height="20px" viewBox="0 0 31 20" version="1.1">
<g id="surface1">
<path style=" stroke:none;fill-rule:nonzero;fill:rgb(0%,30.196078%,56.078431%);fill-opacity:1;" d="M 0 0 L 0 19.988281 L 30.976562 19.988281 L 30.976562 0 Z M 0 0 "/>
<path style=" stroke:none;fill-rule:nonzero;fill:rgb(100%,100%,100%);fill-opacity:1;" d="M 0.371094 0.375 L 30.605469 0.375 L 30.605469 19.613281 L 0.371094 19.613281 Z M 0.371094 0.375 "/>
<path style=" stroke:none;fill-rule:nonzero;fill:rgb(0%,30.196078%,56.078431%);fill-opacity:1;" d="M 29.398438 5.925781 L 29.398438 1.816406 L 1.492188 1.816406 L 1.492188 5.925781 Z M 29.398438 5.925781 "/>
<path style=" stroke:none;fill-rule:nonzero;fill:rgb(100%,64.313725%,14.509804%);fill-opacity:1;" d="M 29.398438 18.324219 L 29.398438 14.21875 L 1.492188 14.21875 L 1.492188 18.324219 Z M 29.398438 18.324219 "/>
<path style=" stroke:none;fill-rule:nonzero;fill:rgb(0%,30.196078%,56.078431%);fill-opacity:1;" d="M 19.84375 13.484375 L 18.414062 13.484375 L 22.222656 7.113281 L 23.832031 7.113281 L 24.378906 13.484375 L 22.699219 13.484375 L 22.578125 12.011719 L 20.648438 12.011719 Z M 21.097656 11.179688 L 22.511719 11.179688 L 22.332031 8.914062 Z M 16.859375 13.503906 C 17.433594 13.40625 17.855469 13.21875 18.230469 12.917969 C 18.976562 12.316406 19.246094 11.257812 18.816406 10.5625 C 18.59375 10.203125 18.136719 9.949219 17.761719 9.707031 C 17.386719 9.464844 17.085938 9.238281 16.960938 8.980469 C 16.835938 8.722656 16.867188 8.421875 17.03125 8.257812 C 17.457031 7.832031 18.144531 7.941406 18.65625 8.082031 C 18.945312 8.164062 19.179688 8.285156 19.378906 8.453125 L 19.96875 7.496094 C 19.695312 7.296875 19.382812 7.15625 18.941406 7.054688 C 18.5 6.949219 17.929688 6.882812 17.4375 6.921875 C 16.941406 6.957031 16.519531 7.097656 16.148438 7.347656 C 15.773438 7.597656 15.449219 7.953125 15.269531 8.339844 C 15.085938 8.726562 15.035156 9.140625 15.15625 9.496094 C 15.402344 10.210938 16.039062 10.527344 16.601562 10.867188 C 16.847656 11.015625 17.058594 11.1875 17.171875 11.390625 C 17.289062 11.589844 17.304688 11.828125 17.167969 12.023438 C 17.027344 12.21875 16.738281 12.375 16.402344 12.429688 C 16.070312 12.484375 15.691406 12.441406 15.335938 12.332031 C 14.984375 12.222656 14.660156 12.050781 14.375 11.828125 L 14.003906 12.945312 C 14.789062 13.648438 15.902344 13.664062 16.859375 13.503906 Z M 14.96875 7.113281 L 13.191406 7.113281 L 11.199219 13.484375 L 12.972656 13.484375 Z M 12.695312 7.113281 L 8.8125 13.484375 L 7.125 13.484375 L 6.972656 8.441406 C 6.964844 8.214844 6.957031 7.976562 6.871094 7.792969 C 6.785156 7.609375 6.652344 7.480469 6.476562 7.394531 C 6.296875 7.304688 6.074219 7.253906 5.855469 7.257812 L 5.855469 7.113281 L 8.640625 7.113281 L 8.777344 11.449219 L 11.265625 7.113281 Z M 12.695312 7.113281 "/>
<path style=" stroke:none;fill-rule:nonzero;fill:rgb(100%,100%,100%);fill-opacity:1;" d="M 28.441406 17.078125 C 28.15625 17.078125 27.925781 17.308594 27.925781 17.59375 C 27.925781 17.882812 28.15625 18.113281 28.441406 18.113281 C 28.722656 18.113281 28.953125 17.882812 28.953125 17.59375 C 28.953125 17.308594 28.722656 17.078125 28.441406 17.078125 Z M 28.441406 17.152344 C 28.683594 17.152344 28.875 17.351562 28.875 17.59375 C 28.875 17.839844 28.683594 18.039062 28.441406 18.039062 C 28.199219 18.039062 28.003906 17.839844 28.003906 17.59375 C 28.003906 17.351562 28.199219 17.152344 28.441406 17.152344 Z M 28.523438 17.617188 C 28.625 17.617188 28.703125 17.574219 28.707031 17.457031 C 28.707031 17.410156 28.679688 17.359375 28.640625 17.332031 C 28.59375 17.304688 28.546875 17.300781 28.5 17.300781 L 28.25 17.300781 L 28.25 17.886719 L 28.320312 17.886719 L 28.320312 17.617188 L 28.449219 17.617188 L 28.613281 17.886719 L 28.695312 17.886719 Z M 28.320312 17.5625 L 28.320312 17.355469 L 28.484375 17.355469 C 28.554688 17.355469 28.632812 17.367188 28.632812 17.457031 C 28.632812 17.574219 28.507812 17.5625 28.429688 17.5625 Z M 28.320312 17.5625 "/>
<path style=" stroke:none;fill-rule:nonzero;fill:rgb(0%,30.196078%,56.078431%);fill-opacity:1;" d="M 24.789062 6.945312 C 24.503906 6.945312 24.273438 7.175781 24.273438 7.464844 C 24.273438 7.753906 24.503906 7.984375 24.789062 7.984375 C 25.070312 7.984375 25.300781 7.753906 25.300781 7.464844 C 25.300781 7.175781 25.070312 6.945312 24.789062 6.945312 Z M 24.789062 7.023438 C 25.03125 7.023438 25.222656 7.222656 25.222656 7.464844 C 25.222656 7.710938 25.03125 7.90625 24.789062 7.90625 C 24.546875 7.90625 24.351562 7.710938 24.351562 7.464844 C 24.351562 7.222656 24.546875 7.023438 24.789062 7.023438 Z M 24.871094 7.488281 C 24.972656 7.488281 25.050781 7.445312 25.054688 7.328125 C 25.054688 7.28125 25.027344 7.230469 24.988281 7.203125 C 24.941406 7.175781 24.894531 7.171875 24.847656 7.171875 L 24.59375 7.171875 L 24.59375 7.753906 L 24.667969 7.753906 L 24.667969 7.488281 L 24.796875 7.488281 L 24.957031 7.753906 L 25.042969 7.753906 Z M 24.667969 7.433594 L 24.667969 7.226562 L 24.832031 7.226562 C 24.902344 7.226562 24.980469 7.238281 24.980469 7.324219 C 24.980469 7.445312 24.855469 7.433594 24.773438 7.433594 Z M 24.667969 7.433594 "/>
</g>
</svg>
